<svg width="50" height="50" viewBox="0 0 50 50" fill="none" xmlns="http://www.w3.org/2000/svg">
<path d="M21 2.91992L22.6667 0.839844C23.0833 0.3125 23.75 0 24.4479 0C25.6667 0 26.6667 0.9375 26.6667 2.08008V4.23828C26.6667 5.51758 27.2292 6.74805 28.2187 7.62695L37.0417 15.5273C42.125 20.0781 45 26.3867 45 32.9785C45 42.3828 36.875 50 26.8438 50H25C13.9583 50 5 41.6016 5 31.25V30.8789C5 26.1133 7.02083 21.543 10.6146 18.1738L10.9792 17.832C11.4167 17.4219 12.0208 17.1875 12.6458 17.1875C13.9479 17.1875 15 18.1738 15 19.3945V28.125C15 31.5723 17.9896 34.375 21.6667 34.375C25.3437 34.375 28.3333 31.5723 28.3333 28.125V27.7441C28.3333 25.9863 27.5833 24.2969 26.2604 23.0566L22.2396 19.2871C19.7396 16.9434 18.3333 13.75 18.3333 10.4297C18.3333 7.72461 19.2708 5.07813 21 2.91992Z" fill="#F8F8FF"/>
</svg>
