<svg width="50" height="50" viewBox="0 0 50 50" fill="none" xmlns="http://www.w3.org/2000/svg">
<g clip-path="url(#clip0_2039_18)">
<path d="M48.6029 29.875L42.3428 31.425L36.9694 28.6V21.4L42.3428 18.575L48.6029 20.125L50 15.3L45.2445 14.125L46.4804 9.7L41.295 8.4L39.6292 14.225L34.2558 17.05L27.6733 13.45V7.8L32.2676 3.525L28.4524 0L24.9866 3.225L21.5207 0L17.7055 3.525L22.2998 7.8V13.45L15.583 17.05L10.2096 14.225L8.65126 8.4L3.49275 9.7L4.75551 14.125L0 15.3L1.3971 20.125L7.65717 18.575L13.0306 21.4V28.625L7.65717 31.45L1.3971 29.9L0 34.725L4.75551 35.9L3.49275 40.3L8.67813 41.6L10.3439 35.775L15.7174 32.95L22.2998 36.55V42.2L17.7055 46.475L21.5207 50L24.9866 46.775L28.4524 50L32.2407 46.475L27.6733 42.2V36.55L34.3901 32.925L39.7636 35.75L41.4293 41.575L46.4804 40.3L45.2176 35.875L49.9731 34.7L48.6029 29.875ZM18.2697 21.4L24.9866 17.775L31.7034 21.4V28.6L24.9866 32.225L18.2697 28.6V21.4Z" fill="#F8F8FF"/>
</g>
<defs>
<clipPath id="clip0_2039_18">
<rect width="50" height="50" fill="white"/>
</clipPath>
</defs>
</svg>
