<svg width="50" height="50" viewBox="0 0 50 50" fill="none" xmlns="http://www.w3.org/2000/svg">
<path d="M2 0V4.18229L14.6966 11.9572L23.9028 7.20633L14.6384 0H2ZM21.1089 0.0105295L30.354 6.0481C21.9626 10.3883 13.096 14.9581 5.57092 18.8434L21.2448 27.9093L27.0265 23.7817L23.2044 20.107C31.1882 15.832 39.5311 11.3149 46.6613 7.47905L37.5812 0.0105295H21.1089ZM35.0977 15.9163L27.6765 19.9069L32.0322 22.5709C26.7743 26.3193 21.1866 30.3205 16.4525 33.7005L48 50L29.8204 34.5007C35.4082 31.0997 41.219 27.5618 46.1956 24.5399L35.0977 15.9163ZM36.3783 32.7739L33.0896 34.7639L46.6031 42.5873C43.198 39.3126 39.7833 36.038 36.3783 32.7739Z" fill="#F8F8FF"/>
</svg>
