<svg width="50" height="50" viewBox="0 0 50 50" fill="none" xmlns="http://www.w3.org/2000/svg">
<path d="M28.5938 22.2656L32.2266 16.7578C32.7344 15.9766 33.5547 15.4297 34.4531 15.2344C35.5078 15 37.0313 14.4922 38.125 13.2031C40.0781 10.9766 41.1328 9.49219 41.1328 9.49219L40.2344 8.71094C40.2344 8.71094 37.9297 10.9375 36.9531 11.7969C36.1328 12.5 35.2344 13.0078 33.4766 13.125C32.8516 13.1641 32.3438 12.6953 32.3438 12.0703C32.3438 11.2109 32.3047 10.2734 32.2656 9.64844C32.2656 9.21875 32.3828 8.78906 32.6563 8.4375L33.5938 7.26562L32.8125 6.75781L31.5625 8.24219C31.25 8.59375 30.7031 8.71094 30.3125 8.47656L27.9688 7.10938L27.6172 7.8125L29.6875 9.25781C30.1172 9.57031 30.3516 10.0781 30.3516 10.625V13.9062L25.1172 19.6094L28.5547 22.3047L28.5938 22.2656ZM20.7031 8.28125C20.7031 8.16406 20.625 5.89844 20.5469 4.49219C20.5469 3.78906 20.7422 3.08594 21.2109 2.53906L21.5625 2.10938L20.7422 1.60156L19.2188 3.08594C18.5547 3.75 18.1641 4.60938 18.125 5.54688L17.9297 10.625L20.7031 8.28125ZM23.2812 30.625L15.5859 26.0156L16.3672 21.4453L15.3516 20.7422L13.2422 25.3125C13.0469 25.7422 12.6172 26.0547 12.1094 26.0938L9.41406 26.2891C8.67188 26.3281 7.89063 26.0938 7.30469 25.625L2.61719 21.875L1.83594 22.6172L5.82031 26.7969C6.01562 27.0313 5.89844 27.3828 5.58594 27.4219L2.61719 27.8125L2.73438 28.6719L11.5625 28.2813C12.8906 28.2422 14.2188 28.7109 15.1953 29.6094C17.6563 31.8359 22.1875 35.8984 22.2266 35.7812C22.2266 35.5859 23.3203 30.625 23.3203 30.625H23.2812Z" fill="#F8F8FF"/>
<path d="M20.9766 47.3828C20.8594 48.7109 30.1563 48.8672 30 47.3437C29.9219 46.6797 29.8047 41.6016 29.8047 41.6016C29.8047 40.7813 30.1172 39.9609 30.6641 39.3359L37.7734 31.0156C38.3594 30.3516 38.9844 29.7266 39.7266 29.2188C40.8203 28.4375 42.4219 27.3047 42.9297 26.9531C43.7109 26.4453 44.8047 26.6016 45.2344 26.8359C45.6641 27.0703 47.5781 27.6953 47.5781 27.6953L48.2031 26.8359C48.2031 26.8359 45.8984 25.5078 45.3516 25.1563C44.1406 24.4531 42.5 24.7656 41.6016 25.2734C40.5469 25.8594 38.8672 26.9141 38.8672 26.9141C38.8672 26.9141 38.75 24.9219 38.6719 23.6719C38.6719 23.2031 38.7891 22.6953 39.0625 22.3047C39.9219 21.1328 41.6797 18.7891 41.6797 18.7891L40.8203 18.1641C40.8203 18.1641 38.3203 20.3125 37.7734 20.9375C37.4609 21.3281 36.6016 21.7578 36.0547 21.1719C35.5859 20.6641 34.2969 19.5312 34.2969 19.5312L33.6328 20.0781L35.7812 22.7344C35.9766 22.9688 36.0937 23.2812 36.0937 23.5547V28.0859C36.1328 28.0859 30.3906 33.9453 29.6484 34.6484C29.5312 29.1797 31.1719 29.0625 31.0937 26.0156C31.0156 23.8672 29.3359 22.1875 28.5156 21.2891C27.8516 20.5469 24.4922 17.2266 23.0469 15.8594C22.6953 15.5078 22.1484 15 22.0313 14.2188C21.9141 13.5156 21.7188 12.5391 21.6406 11.9531C21.4453 10.9375 21.875 10.0391 22.4609 9.21875C22.9688 8.51563 24.6094 6.13281 25.1172 5.54687C25.625 4.96094 26.3672 4.21875 27.3047 3.94531C28.2422 3.67188 31.0156 2.5 31.0156 2.5L30.7031 1.75781C30.7031 1.75781 26.7188 2.73438 26.1719 2.89063C25.625 3.04688 24.8047 3.28125 23.8281 4.29688C22.8516 5.3125 19.1797 8.4375 18.7109 8.86719C18.2031 9.29688 17.3438 10.1172 17.3438 11.25C17.3438 12.3828 17.6172 14.9609 17.6172 14.9609L13.2813 14.6484C12.4609 14.6484 11.1328 14.1406 10.5859 13.5547L7.42187 10.0781L6.40625 10.8984L8.90625 14.6875L3.04688 16.1328L3.20312 17.0312C3.20312 17.0312 7.14844 16.5234 7.96875 16.4062C8.78906 16.2891 10.8203 16.5625 13.2422 16.9531C15.7813 17.3438 17.5 17.2656 19.8438 20.1172C20.3906 20.7813 21.8359 22.6563 22.9297 24.1016C23.75 25.1563 23.9453 26.5625 23.4766 27.8125C22.4609 30.5469 20.9375 32.0703 21.2109 36.2109C21.4062 38.8281 21.0156 46.5234 20.9375 47.2656L20.9766 47.3828Z" fill="#F8F8FF"/>
<path d="M45.1948 42C43.8961 42.6878 42.4351 43.6999 40.8983 44.6991C39.1126 45.854 37.2511 46.983 35.0649 47.4436L34.7186 47.515L34.3723 47.4307C30.855 46.5807 26.4827 46.678 21.8615 47.0089L21.5909 47.0284L21.342 46.9635C18.5173 46.1979 16.6991 45.4712 13.1926 44.7445C12.4351 45.5426 11.4177 46.2628 10.2489 46.7429C9.55628 47.0284 8.7987 47.236 7.99134 47.2944C7.1829 47.3593 6.31277 47.249 5.59416 46.9375C4.46537 46.4509 3.3355 45.7697 2.21429 45.2766C1.40368 44.9262 0.666667 44.7056 0 44.6472V50H50V47.5864C49.4481 46.7624 48.6797 45.5685 47.7489 44.4266C46.9697 43.4599 46.039 42.558 45.1948 42Z" fill="#F8F8FF"/>
<path d="M14.5 9.57895C11.8 10.2105 11.17 12.1589 10.546 13.7916L11.113 14L11.398 13.2737C11.542 13.3274 11.692 13.3684 11.8 13.3684C15.1 13.3684 16 8 16 8C15.7 8.63158 13.6 8.71053 12.1 9.02632C10.6 9.34211 10 10.6842 10 11.3158C10 11.9474 10.525 12.5 10.525 12.5C11.5 9.57895 14.5 9.57895 14.5 9.57895Z" fill="#F8F8FF"/>
<path d="M9.5 20.5789C6.8 21.2105 6.17 23.1589 5.546 24.7916L6.113 25L6.398 24.2737C6.542 24.3274 6.692 24.3684 6.8 24.3684C10.1 24.3684 11 19 11 19C10.7 19.6316 8.6 19.7105 7.1 20.0263C5.6 20.3421 5 21.6842 5 22.3158C5 22.9474 5.525 23.5 5.525 23.5C6.5 20.5789 9.5 20.5789 9.5 20.5789Z" fill="#F8F8FF"/>
<path d="M47.5 20.5789C44.8 21.2105 44.17 23.1589 43.546 24.7916L44.113 25L44.398 24.2737C44.542 24.3274 44.692 24.3684 44.8 24.3684C48.1 24.3684 49 19 49 19C48.7 19.6316 46.6 19.7105 45.1 20.0263C43.6 20.3421 43 21.6842 43 22.3158C43 22.9474 43.525 23.5 43.525 23.5C44.5 20.5789 47.5 20.5789 47.5 20.5789Z" fill="#F8F8FF"/>
<path d="M35.5789 5.5C36.2105 8.2 38.1589 8.83 39.7916 9.454L40 8.887L39.2737 8.602C39.3274 8.458 39.3684 8.308 39.3684 8.2C39.3684 4.9 34 4 34 4C34.6316 4.3 34.7105 6.4 35.0263 7.9C35.3421 9.4 36.6842 10 37.3158 10C37.9474 10 38.5 9.475 38.5 9.475C35.5789 8.5 35.5789 5.5 35.5789 5.5Z" fill="#F8F8FF"/>
<path d="M13.3399 2.76953C14.4308 5.31883 16.459 5.60092 18.1752 5.93194L18.282 5.33736L17.5172 5.18281C17.5451 5.03168 17.5595 4.87683 17.5407 4.77047C16.9677 1.52061 11.5245 1.5665 11.5245 1.5665C12.1986 1.75226 12.641 3.80665 13.2125 5.22903C13.7839 6.6514 15.2098 7.00923 15.8318 6.89956C16.4538 6.78989 16.9069 6.1769 16.9069 6.1769C13.8609 5.72395 13.3399 2.76953 13.3399 2.76953Z" fill="#F8F8FF"/>
<path d="M44.4211 32.5C43.7895 29.8 41.8411 29.17 40.2084 28.546L40 29.113L40.7263 29.398C40.6726 29.542 40.6316 29.692 40.6316 29.8C40.6316 33.1 46 34 46 34C45.3684 33.7 45.2895 31.6 44.9737 30.1C44.6579 28.6 43.3158 28 42.6842 28C42.0526 28 41.5 28.525 41.5 28.525C44.4211 29.5 44.4211 32.5 44.4211 32.5Z" fill="#F8F8FF"/>
<path d="M43.4211 15.5C42.7895 12.8 40.8411 12.17 39.2084 11.546L39 12.113L39.7263 12.398C39.6726 12.542 39.6316 12.692 39.6316 12.8C39.6316 16.1 45 17 45 17C44.3684 16.7 44.2895 14.6 43.9737 13.1C43.6579 11.6 42.3158 11 41.6842 11C41.0526 11 40.5 11.525 40.5 11.525C43.4211 12.5 43.4211 15.5 43.4211 15.5Z" fill="#F8F8FF"/>
<path d="M8.5 32.4211C11.2 31.7895 11.83 29.8411 12.454 28.2084L11.887 28L11.602 28.7263C11.458 28.6726 11.308 28.6316 11.2 28.6316C7.9 28.6316 7 34 7 34C7.3 33.3684 9.4 33.2895 10.9 32.9737C12.4 32.6579 13 31.3158 13 30.6842C13 30.0526 12.475 29.5 12.475 29.5C11.5 32.4211 8.5 32.4211 8.5 32.4211Z" fill="#F8F8FF"/>
<path d="M24.5 12.4211C27.2 11.7895 27.83 9.84105 28.454 8.20842L27.887 8L27.602 8.72632C27.458 8.67263 27.308 8.63158 27.2 8.63158C23.9 8.63158 23 14 23 14C23.3 13.3684 25.4 13.2895 26.9 12.9737C28.4 12.6579 29 11.3158 29 10.6842C29 10.0526 28.475 9.5 28.475 9.5C27.5 12.4211 24.5 12.4211 24.5 12.4211Z" fill="#F8F8FF"/>
</svg>
