<svg width="50" height="50" viewBox="0 0 50 50" fill="none" xmlns="http://www.w3.org/2000/svg">
<g clip-path="url(#clip0_2039_63)">
<path d="M25 0C11.1938 0 1.47264e-05 11.1937 1.47264e-05 25C-0.0037661 28.4792 0.720504 31.9206 2.12626 35.1031C3.53203 38.2856 5.58817 41.1388 8.16251 43.4792C7.88684 42.5856 7.7464 41.6559 7.74585 40.7208C7.74645 39.0158 8.21691 37.344 9.10554 35.8889C9.99418 34.4338 11.2666 33.2518 12.7831 32.4725C14.2997 31.6933 16.0016 31.3471 17.702 31.4719C19.4024 31.5967 21.0355 32.1877 22.422 33.18C23.8085 34.1723 24.8948 35.5274 25.5614 37.0967C26.2281 38.6659 26.4494 40.3885 26.2011 42.0753C25.9527 43.7621 25.2444 45.3479 24.1537 46.6584C23.0631 47.9689 21.6324 48.9536 20.0188 49.5042C21.6313 49.8319 23.2917 49.9972 25 50C38.8063 50 50 38.8062 50 25C50 11.1937 38.8063 0 25 0Z" fill="#F8F8FF"/>
</g>
<defs>
<clipPath id="clip0_2039_63">
<rect width="50" height="50" fill="white"/>
</clipPath>
</defs>
</svg>
