<svg width="50" height="50" viewBox="0 0 50 50" fill="none" xmlns="http://www.w3.org/2000/svg">
<g clip-path="url(#clip0_2039_4)">
<path fill-rule="evenodd" clip-rule="evenodd" d="M7.94285 39.4399C8.46965 39.4364 8.98577 39.5893 9.42663 39.8793C9.86749 40.1693 10.2135 40.5836 10.4214 41.0703C10.9 42.2016 11.725 43.1461 12.7714 43.7782C14.7214 44.9561 18.2357 44.9561 20.1893 43.7782C21.2356 43.1457 22.0577 42.1984 22.5393 41.0703C22.7461 40.5866 23.0895 40.1744 23.5268 39.8848C23.9642 39.5952 24.4763 39.4408 25 39.4408C25.5236 39.4408 26.0358 39.5952 26.4732 39.8848C26.9105 40.1744 27.2538 40.5866 27.4607 41.0703C27.9428 42.2016 28.7643 43.1461 29.8107 43.7782C31.7607 44.9561 35.2786 44.9561 37.2286 43.7782C38.275 43.1461 39.1 42.198 39.5786 41.0703C39.7861 40.5835 40.1319 40.169 40.5725 39.8787C41.0132 39.5884 41.5291 39.4352 42.0559 39.4383C42.5827 39.4413 43.0968 39.6005 43.5341 39.8959C43.9714 40.1913 44.3123 40.6098 44.5143 41.099C44.8203 41.833 45.2842 42.4897 45.8727 43.0219C46.4612 43.554 47.1597 43.9485 47.9178 44.1768C48.2551 44.2777 48.5692 44.4445 48.8423 44.6675C49.1155 44.8905 49.3423 45.1654 49.5097 45.4765C49.6772 45.7877 49.7821 46.1289 49.8184 46.4809C49.8548 46.8328 49.8218 47.1884 49.7214 47.5275C49.6211 47.8666 49.4553 48.1825 49.2335 48.4571C49.0117 48.7318 48.7383 48.9599 48.4289 49.1283C48.1195 49.2967 47.7801 49.4021 47.4301 49.4387C47.0802 49.4752 46.7265 49.442 46.3893 49.3411C44.7607 48.8533 43.2709 47.983 42.0429 46.8021C40.9224 47.9011 39.5849 48.7512 38.117 49.2975C36.6491 49.8438 35.0834 50.074 33.5214 49.9732C31.9594 50.074 30.3938 49.8438 28.9258 49.2975C27.4579 48.7512 26.1204 47.9011 25 46.8021C23.8795 47.9011 22.5421 48.7512 21.0741 49.2975C19.6062 49.8438 18.0406 50.074 16.4786 49.9732C14.9166 50.074 13.3509 49.8438 11.883 49.2975C10.4151 48.7512 9.07758 47.9011 7.95713 46.8021C6.72905 47.983 5.23925 48.8533 3.61071 49.3411C3.27349 49.442 2.91981 49.4752 2.56985 49.4387C2.2199 49.4021 1.88052 49.2967 1.5711 49.1283C1.26168 48.9599 0.988283 48.7318 0.766509 48.4571C0.544734 48.1825 0.37893 47.8666 0.278563 47.5275C0.178195 47.1884 0.14523 46.8328 0.18155 46.4809C0.217869 46.1289 0.322762 45.7877 0.490239 45.4765C0.657716 45.1654 0.884498 44.8905 1.15764 44.6675C1.43077 44.4445 1.74492 44.2777 2.08213 44.1768C2.84032 43.9485 3.53877 43.554 4.12728 43.0219C4.71578 42.4897 5.17971 41.833 5.48571 41.099C5.68783 40.6103 6.02868 40.1923 6.46568 39.8972C6.90269 39.6021 7.41647 39.443 7.94285 39.4399Z" fill="#F8F8FF"/>
<path fill-rule="evenodd" clip-rule="evenodd" d="M30.3571 0C19.25 0 15.0071 8.07328 14.3107 12.2751C14.2589 12.5893 14.2911 12.9116 14.4041 13.2091C14.517 13.5066 14.7066 13.7686 14.9534 13.9682C15.2001 14.1677 15.4953 14.2977 15.8085 14.3447C16.1217 14.3918 16.4417 14.3543 16.7357 14.236C18.7429 13.4279 20.3 13.2879 21.4857 13.4962C22.6464 13.7009 23.5786 14.2647 24.3429 15.1159C25.9321 16.8936 26.7857 19.9641 26.7857 23.3436C26.7857 27.5669 22.4107 32.3219 16.0714 32.3219C13.0107 32.3219 9.925 30.695 8.78571 28.023C8.64779 27.6977 8.4174 27.4206 8.12344 27.2264C7.82949 27.0322 7.48505 26.9297 7.13335 26.9316C6.78165 26.9335 6.43834 27.0398 6.1465 27.2372C5.85465 27.4345 5.62726 27.7142 5.49286 28.041C4.74286 29.8582 3.15357 31.2983 1.27857 31.8586C0.909568 31.9685 0.585748 32.1953 0.355353 32.5053C0.124958 32.8153 0.000317263 33.1918 0 33.5788L0 40.1725C0.261905 40.0575 0.532143 39.9582 0.810714 39.8744C0.934697 39.8379 1.04889 39.7738 1.14474 39.6867C1.2406 39.5997 1.31565 39.4919 1.36429 39.3716C1.90351 38.0675 2.81308 36.9523 3.97927 36.1653C5.14546 35.3782 6.5165 34.9544 7.92095 34.9467C9.32541 34.9391 10.7009 35.3479 11.8756 36.1222C13.0502 36.8964 13.9717 38.0017 14.525 39.2998C14.6403 39.5586 14.8292 39.7772 15.0679 39.9283C15.075 39.9319 15.2 40.0001 15.4786 40.0647C16.1373 40.2108 16.8198 40.2108 17.4786 40.0647C17.6205 40.0361 17.7584 39.9903 17.8893 39.9283C18.1287 39.7787 18.3189 39.5613 18.4357 39.3034C18.9867 38.012 19.9022 36.9114 21.069 36.1381C22.2358 35.3647 23.6026 34.9525 25 34.9525C26.3974 34.9525 27.7642 35.3647 28.931 36.1381C30.0978 36.9114 31.0133 38.012 31.5643 39.3034C31.6811 39.5613 31.8713 39.7787 32.1107 39.9283C32.1179 39.9319 32.2429 40.0001 32.5214 40.0647C33.1802 40.2108 33.8627 40.2108 34.5214 40.0647C34.8 40.0001 34.925 39.9319 34.9321 39.9283C35.1703 39.7782 35.3591 39.5608 35.475 39.3034C36.0283 38.0053 36.9498 36.9 38.1244 36.1258C39.2991 35.3515 40.6746 34.9427 42.079 34.9503C43.4835 34.958 44.8545 35.3818 46.0207 36.1688C47.1869 36.9559 48.0965 38.0711 48.6357 39.3752C48.6843 39.4955 48.7594 39.6033 48.8553 39.6903C48.9511 39.7774 49.0653 39.8415 49.1893 39.878C49.4679 39.9594 49.7381 40.0575 50 40.1725V12.5696C50 12.2903 49.9352 12.0149 49.8107 11.7652C47.8393 7.80393 41.2607 0 30.3571 0ZM49.5179 48.0267C49.7042 47.6745 49.8104 47.285 49.8287 46.8865C49.8471 46.488 49.7772 46.0904 49.6241 45.7223C49.471 45.3543 49.2385 45.025 48.9435 44.7584C48.6484 44.4917 48.2981 44.2943 47.9179 44.1804C47.1593 43.9517 46.4606 43.5567 45.8721 43.0239C45.2836 42.4911 44.8199 41.8337 44.5143 41.099C44.3123 40.6098 43.9714 40.1913 43.5341 39.8959C43.0969 39.6005 42.5827 39.4413 42.0559 39.4383C41.5291 39.4352 41.0132 39.5884 40.5725 39.8787C40.1319 40.169 39.7862 40.5835 39.5786 41.0703C39.097 42.1984 38.2749 43.1456 37.2286 43.7782C35.2786 44.9561 31.7643 44.9561 29.8107 43.7782C28.7644 43.1456 27.9423 42.1984 27.4607 41.0703C27.2539 40.5866 26.9105 40.1744 26.4732 39.8848C26.0358 39.5952 25.5237 39.4408 25 39.4408C24.4763 39.4408 23.9642 39.5952 23.5268 39.8848C23.0895 40.1744 22.7461 40.5866 22.5393 41.0703C22.0577 42.1984 21.2356 43.1456 20.1893 43.7782C18.2393 44.9561 14.7214 44.9561 12.7714 43.7782C11.7251 43.1456 10.903 42.1984 10.4214 41.0703C10.2138 40.5835 9.86811 40.169 9.42747 39.8787C8.98684 39.5884 8.47086 39.4352 7.94409 39.4383C7.41732 39.4413 6.90315 39.6005 6.46588 39.8959C6.02862 40.1913 5.68768 40.6098 5.48571 41.099C5.17972 41.833 4.71579 42.4897 4.12728 43.0219C3.53878 43.554 2.84033 43.9485 2.08214 44.1768C1.74493 44.2777 1.43078 44.4444 1.15764 44.6675C0.884506 44.8905 0.657725 45.1654 0.490248 45.4765C0.322771 45.7877 0.217878 46.1289 0.181558 46.4808C0.145239 46.8327 0.178204 47.1884 0.278571 47.5275C0.378939 47.8666 0.544743 48.1825 0.766517 48.4571C0.988292 48.7318 1.26169 48.9598 1.57111 49.1282C1.88053 49.2967 2.2199 49.4021 2.56986 49.4387C2.91982 49.4752 3.2735 49.442 3.61071 49.3411C5.23925 48.8533 6.72906 47.983 7.95714 46.802C8.66861 47.5102 9.47526 48.1147 10.3536 48.5977C12.2224 49.6362 14.3478 50.1147 16.4786 49.9768C18.6097 50.1136 20.7351 49.6338 22.6036 48.5941L22.9429 48.3966C23.6903 47.9509 24.3811 47.4155 25 46.802C25.7104 47.51 26.5158 48.1144 27.3929 48.5977C29.2617 49.6362 31.3907 50.1147 33.5214 49.9768C35.6513 50.1129 37.7755 49.6331 39.6429 48.5941C40.5212 48.1111 41.3278 47.5066 42.0393 46.7985L42.2893 47.0283C43.5314 48.1469 45.016 48.9585 46.625 49.3986C47.1902 49.5129 47.777 49.4408 48.2981 49.193C48.8193 48.9452 49.2471 48.5349 49.5179 48.0231V48.0267Z" fill="#F8F8FF"/>
</g>
<defs>
<clipPath id="clip0_2039_4">
<rect width="50" height="50" fill="white"/>
</clipPath>
</defs>
</svg>
