<svg width="50" height="50" viewBox="0 0 50 50" fill="none" xmlns="http://www.w3.org/2000/svg">
<g clip-path="url(#clip0_2039_59)">
<path fill-rule="evenodd" clip-rule="evenodd" d="M21.4295 7.14286C20.966 7.14264 20.5126 7.27769 20.1247 7.53145C19.7369 7.78521 19.4315 8.14665 19.2461 8.57143C19.0585 9.00135 18.788 9.39012 18.4502 9.71552C18.1123 10.0409 17.7137 10.2966 17.277 10.4679C16.8403 10.6393 16.3742 10.723 15.9051 10.7142C15.4361 10.7054 14.9734 10.6043 14.5435 10.4167C14.1136 10.2291 13.7248 9.95862 13.3994 9.62077C13.0739 9.28293 12.8183 8.8843 12.6469 8.44764C12.4756 8.01098 12.3919 7.54485 12.4007 7.07586C12.4095 6.60687 12.5106 6.14421 12.6982 5.71429C13.385 4.14068 14.4845 2.78199 15.8802 1.78201C17.276 0.782024 18.9161 0.17794 20.6271 0.03368C22.338 -0.11058 24.0562 0.21035 25.5997 0.962509C27.1432 1.71467 28.4546 2.87008 29.3952 4.30647C30.3359 5.74287 30.8707 7.40682 30.9431 9.12224C31.0155 10.8377 30.6228 12.5408 29.8065 14.0513C28.9903 15.5618 27.7808 16.8236 26.3062 17.7031C24.8315 18.5827 23.1466 19.0472 21.4295 19.0476H8.33371C7.38646 19.0476 6.47801 18.6713 5.80821 18.0016C5.13841 17.3318 4.76212 16.4234 4.76212 15.4762C4.76212 14.529 5.13841 13.6206 5.80821 12.9508C6.47801 12.281 7.38646 11.9048 8.33371 11.9048H21.4295C22.061 11.9048 22.6667 11.6539 23.1132 11.2074C23.5597 10.7609 23.8106 10.1553 23.8106 9.52381C23.8106 8.89234 23.5597 8.28674 23.1132 7.84022C22.6667 7.39371 22.061 7.14286 21.4295 7.14286ZM40.478 16.6667C40.0145 16.6664 39.561 16.8015 39.1732 17.0553C38.7853 17.309 38.48 17.6705 38.2946 18.0952C37.9157 18.9635 37.2074 19.6457 36.3255 19.9918C35.4435 20.3378 34.4603 20.3194 33.592 19.9405C32.7237 19.5616 32.0414 18.8533 31.6954 17.9714C31.3493 17.0896 31.3678 16.1064 31.7467 15.2381C32.4335 13.6645 33.5329 12.3058 34.9287 11.3058C36.3244 10.3058 37.9646 9.70175 39.6755 9.55749C41.3865 9.41323 43.1046 9.73416 44.6481 10.4863C46.1916 11.2385 47.5031 12.3939 48.4437 13.8303C49.3843 15.2667 49.9191 16.9306 49.9915 18.646C50.0639 20.3615 49.6712 22.0646 48.855 23.5751C48.0387 25.0856 46.8293 26.3474 45.3547 27.227C43.88 28.1065 42.195 28.571 40.478 28.5714H3.57159C2.62434 28.5714 1.7159 28.1952 1.04609 27.5254C0.376291 26.8556 0 25.9472 0 25C0 24.0528 0.376291 23.1444 1.04609 22.4746C1.7159 21.8048 2.62434 21.4286 3.57159 21.4286H40.478C41.1095 21.4286 41.7151 21.1777 42.1617 20.7312C42.6082 20.2847 42.8591 19.6791 42.8591 19.0476C42.8591 18.4162 42.6082 17.8105 42.1617 17.364C41.7151 16.9175 41.1095 16.6667 40.478 16.6667ZM28.7703 41.4286C28.942 41.822 29.2169 42.1616 29.5658 42.4116C29.9147 42.6616 30.3247 42.8126 30.7524 42.8487C31.1801 42.8848 31.6096 42.8046 31.9955 42.6166C32.3814 42.4286 32.7092 42.1398 32.9444 41.7808C33.1796 41.4217 33.3134 41.0058 33.3315 40.577C33.3497 40.1481 33.2516 39.7224 33.0476 39.3447C32.8436 38.9671 32.5414 38.6516 32.1728 38.4316C31.8042 38.2117 31.383 38.0954 30.9538 38.0952H15.4769C14.5296 38.0952 13.6212 37.719 12.9514 37.0492C12.2816 36.3794 11.9053 35.471 11.9053 34.5238C11.9053 33.5766 12.2816 32.6682 12.9514 31.9984C13.6212 31.3287 14.5296 30.9524 15.4769 30.9524H30.9538C32.6709 30.9524 34.3561 31.4165 35.831 32.2958C37.3059 33.175 38.5157 34.4367 39.3323 35.9471C40.1489 37.4576 40.5419 39.1607 40.4697 40.8763C40.3976 42.5918 39.863 44.2559 38.9225 45.6925C37.982 47.1291 36.6706 48.2848 35.1271 49.0371C33.5836 49.7894 31.8653 50.1105 30.1543 49.9664C28.4432 49.8222 26.8029 49.2182 25.4071 48.2182C24.0112 47.2182 22.9117 45.8594 22.2248 44.2857C22.0271 43.8544 21.9173 43.388 21.9018 42.9137C21.8863 42.4395 21.9655 41.9669 22.1348 41.5236C22.304 41.0803 22.5599 40.6752 22.8875 40.3319C23.215 39.9886 23.6077 39.7141 24.0426 39.5242C24.4775 39.3344 24.9459 39.2331 25.4203 39.2263C25.8948 39.2195 26.3658 39.3073 26.806 39.4846C27.2461 39.6619 27.6465 39.9251 27.9838 40.2589C28.3211 40.5927 28.5885 40.9903 28.7703 41.4286Z" fill="#F8F8FF"/>
</g>
<defs>
<clipPath id="clip0_2039_59">
<rect width="50" height="50" fill="white"/>
</clipPath>
</defs>
</svg>
