<svg width="100" height="100" viewBox="0 0 100 100" fill="none" xmlns="http://www.w3.org/2000/svg">
<path d="M89.484 11.0002C60.5527 35.632 44.7432 75.8842 40.4117 99.5865H55.4934C61.6646 75.6617 65.4807 48.1228 89.4842 11L89.484 11.0002ZM14.6426 21.2416C24.8764 33.5064 34.625 47.1107 42.3953 60.1635C43.7919 62.5097 45.1469 64.8804 46.4598 67.2744C48.0314 63.4243 49.7313 59.6278 51.5564 55.8912C41.4359 41.9791 29.3955 29.523 14.6424 21.2418L14.6426 21.2416ZM91.0465 47.3588C80.9707 56.4404 75.6449 69.7129 73.3523 84.5961C76.0428 89.642 78.568 94.6146 80.957 99.4154H88.6475C83.7158 85.4584 86.3941 67.7045 91.0465 47.3588ZM12.4209 50.3555C26.6713 64.6641 36.0135 87.1914 28.0643 99.3359H36.8533C37.7311 94.4297 39.0682 88.8607 40.8937 82.8809C37.2916 66.4185 25.0029 50.8418 12.4209 50.3561V50.3555ZM6 67.5307C16.3555 83.3385 18.0518 91.9381 13.9957 99.2877H27.1793C24.6207 85.2213 21.0379 76.5719 6 67.5309V67.5307ZM64.7769 76.4357C62.6969 84.5139 61.0293 92.1461 59.1494 99.5314H77.0635C73.3244 92.0537 69.2668 84.2205 64.7769 76.4357Z" fill="#F8F8FF"/>
</svg>
