<svg width="30" height="35" viewBox="0 0 30 35" fill="none" xmlns="http://www.w3.org/2000/svg">
<path d="M0.721312 15.0481C-0.899845 10.9337 0.586216 9.04797 1.53189 8.6194C1.53189 10.5737 1.53189 12.6052 2.61268 12.8623C8.69202 14.0195 9.21399 22.3766 6.66557 22.8911C2.20739 23.7911 0.721312 18.0053 0.721312 15.0481Z" fill="#F8F8FF"/>
<path d="M29.2787 15.0481C30.8999 10.9337 29.4138 9.04798 28.4682 8.61941C28.4682 10.5737 28.4682 12.6052 27.3874 12.8623C21.308 14.0195 20.7861 22.3766 23.3345 22.8911C27.7927 23.7911 29.2787 18.0053 29.2787 15.0481Z" fill="#F8F8FF"/>
<path d="M14.3243 10.4477C14.3243 13.9098 12.8117 16.7164 10.9459 16.7164C9.08006 16.7164 7.56751 13.9098 7.56751 10.4477C7.56751 6.98566 9.08006 4.17909 10.9459 4.17909C12.8117 4.17909 14.3243 6.98566 14.3243 10.4477Z" fill="#F8F8FF"/>
<path d="M22.4324 10.4477C22.4324 13.9098 20.9198 16.7164 19.054 16.7164C17.1882 16.7164 15.6756 13.9098 15.6756 10.4477C15.6756 6.98566 17.1882 4.17909 19.054 4.17909C20.9198 4.17909 22.4324 6.98566 22.4324 10.4477Z" fill="#F8F8FF"/>
<path d="M10.946 0L12.2333 5.09328H9.65863L10.946 0Z" fill="#F8F8FF"/>
<path d="M10.4809 26.6994C10.4809 26.6994 6.5666 26.2644 7.58928 25.8546C10.2514 24.7878 10.539 23.5059 10.539 23.5059L10.4809 26.6994Z" fill="#F8F8FF"/>
<path d="M19.5191 26.6994C19.5191 26.6994 23.4335 26.2644 22.4108 25.8546C19.7486 24.7878 19.461 23.5059 19.461 23.5059L19.5191 26.6994Z" fill="#F8F8FF"/>
<path d="M19.0541 0L20.3414 5.09328H17.7668L19.0541 0Z" fill="#F8F8FF"/>
<path d="M12.4324 30.4291C12.4324 32.9535 10.3148 35 7.70269 35C5.09053 35 2.97296 32.9535 2.97296 30.4291C2.97296 27.9047 5.09053 25.8582 7.70269 25.8582C10.3148 25.8582 12.4324 27.9047 12.4324 30.4291Z" fill="#F8F8FF"/>
<path d="M19.7297 25.3358C19.7297 28.6536 17.6121 31.3433 15 31.3433C12.3878 31.3433 10.2702 28.6536 10.2702 25.3358C10.2702 22.018 12.3878 19.3284 15 19.3284C17.6121 19.3284 19.7297 22.018 19.7297 25.3358Z" fill="#F8F8FF"/>
<path d="M25.9244 32.9345C25.1748 32.0164 23.7141 31.2164 21.7516 30.649C19.7892 30.0817 17.4258 29.7761 15.0001 29.7761C12.5744 29.7761 10.2109 30.0817 8.24847 30.649C6.28603 31.2164 4.82534 32.0164 4.07576 32.9345L10.8488 33.8102C11.1337 33.4614 11.6887 33.1574 12.4345 32.9418C13.1802 32.7261 14.0783 32.61 15.0001 32.61C15.9218 32.61 16.8199 32.7261 17.5657 32.9418C18.3114 33.1574 18.8664 33.4614 19.1513 33.8102L25.9244 32.9345Z" fill="#F8F8FF"/>
<path d="M27.0271 30.4291C27.0271 32.9535 24.9095 35 22.2973 35C19.6852 35 17.5676 32.9535 17.5676 30.4291C17.5676 27.9047 19.6852 25.8582 22.2973 25.8582C24.9095 25.8582 27.0271 27.9047 27.0271 30.4291Z" fill="#F8F8FF"/>
</svg>
